<svg width="18" height="19" viewBox="0 0 18 19" fill="none" xmlns="http://www.w3.org/2000/svg">
<path fill-rule="evenodd" clip-rule="evenodd" d="M14.4402 12.8779C14.9543 12.8772 15.4522 12.6982 15.849 12.3714C16.2458 12.0446 16.517 11.5903 16.6163 11.0859L17.7313 5.51294C17.7958 5.18996 17.788 4.85665 17.7084 4.53705C17.6288 4.21744 17.4793 3.91948 17.2707 3.66455C17.0622 3.40962 16.7997 3.20406 16.5022 3.06268C16.2048 2.92131 15.8796 2.84762 15.5503 2.84692H4.45025V1.73193C4.44998 1.43708 4.33296 1.15433 4.12475 0.945557C3.91654 0.736784 3.6341 0.618978 3.33925 0.61792H1.12426C0.834452 0.626602 0.559425 0.74781 0.357503 0.955872C0.155581 1.16393 0.042653 1.44249 0.042653 1.73242C0.042653 2.02236 0.155581 2.30091 0.357503 2.50897C0.559425 2.71703 0.834452 2.83824 1.12426 2.84692H2.23925V13.9919C1.79797 13.99 1.36603 14.119 0.998158 14.3627C0.630288 14.6065 0.343053 14.9538 0.17281 15.361C0.00256826 15.7681 -0.0430143 16.2166 0.0418595 16.6496C0.126733 17.0826 0.338227 17.4808 0.649556 17.7935C0.960885 18.1063 1.35805 18.3195 1.7907 18.4063C2.22335 18.4931 2.67204 18.4496 3.07992 18.2812C3.48779 18.1128 3.83653 17.8271 4.0819 17.4603C4.32727 17.0936 4.45824 16.6622 4.45824 16.2209H12.2243C12.226 16.6596 12.3577 17.088 12.6027 17.4518C12.8478 17.8157 13.1951 18.0989 13.6009 18.2655C14.0067 18.4321 14.4528 18.4749 14.8828 18.3882C15.3129 18.3015 15.7076 18.0893 16.0172 17.7785C16.3267 17.4677 16.5373 17.0721 16.6222 16.6417C16.7072 16.2113 16.6627 15.7654 16.4944 15.3603C16.3261 14.9552 16.0416 14.609 15.6767 14.3654C15.3118 14.1219 14.883 13.9919 14.4443 13.9919H4.45726V12.8779H14.4402ZM15.5553 5.07794L14.4402 10.6509H4.45324V5.07794H15.5532H15.5553Z" fill="#33A0FF"/>
</svg>
