<svg width="9" height="17" viewBox="0 0 9 17" fill="none" xmlns="http://www.w3.org/2000/svg">
<path d="M0.8333 8.89229H2.59532V16.1527C2.59532 16.2215 2.62265 16.2875 2.67128 16.3362C2.71991 16.3848 2.78586 16.4122 2.85463 16.4122H5.84306C5.91183 16.4122 5.97778 16.3848 6.02641 16.3362C6.07504 16.2875 6.10237 16.2215 6.10237 16.1527V8.92632H8.12902C8.19256 8.92622 8.25387 8.90277 8.30128 8.86043C8.34869 8.81809 8.37891 8.75981 8.3862 8.69664L8.69439 6.02343C8.69858 5.98712 8.69507 5.95034 8.68406 5.91548C8.67306 5.88063 8.65481 5.8485 8.63053 5.8212C8.60625 5.79389 8.57647 5.77202 8.54316 5.75703C8.50984 5.74204 8.47373 5.73426 8.4372 5.7342H6.09918V4.05946C6.09918 3.55437 6.37125 3.29811 6.90687 3.29811H8.43295C8.50173 3.29811 8.56768 3.27078 8.61631 3.22212C8.66494 3.17346 8.69227 3.10747 8.69227 3.03866V0.585554C8.69284 0.517106 8.66636 0.451206 8.61858 0.402211C8.57081 0.353215 8.50561 0.325094 8.4372 0.323975L6.33193 0.323975H6.23521C5.26576 0.327398 4.33003 0.680379 3.59962 1.31819C3.25496 1.61956 2.99051 2.00188 2.83005 2.4308C2.6696 2.85972 2.61816 3.32181 2.68034 3.77555V5.73527H0.830105C0.761332 5.73527 0.695379 5.7626 0.646749 5.81126C0.598119 5.85991 0.570801 5.92591 0.570801 5.99472V8.63284C0.570798 8.66718 0.577605 8.70119 0.590836 8.73287C0.604066 8.76456 0.623458 8.79331 0.647876 8.81744C0.672294 8.84157 0.701254 8.86062 0.733084 8.87347C0.764914 8.88632 0.798979 8.89272 0.8333 8.89229Z" fill="white"/>
</svg>
