<svg width="19" height="17" viewBox="0 0 19 17" fill="none" xmlns="http://www.w3.org/2000/svg">
<path fill-rule="evenodd" clip-rule="evenodd" d="M12.8223 2.96095C13.4661 2.96161 14.096 3.14809 14.6365 3.49806C15.1769 3.84802 15.6048 4.34656 15.8688 4.93379C16.1328 5.52101 16.2216 6.17198 16.1247 6.80848C16.0277 7.44498 15.7491 8.03992 15.3223 8.52192C14.7093 9.21292 9.48229 14.106 9.48229 14.106C9.48229 14.106 4.24428 9.21293 3.63128 8.51093C3.09008 7.90347 2.79236 7.11753 2.79528 6.30396C2.81044 5.42723 3.16935 4.59147 3.79473 3.97681C4.42011 3.36216 5.26191 3.01777 6.13878 3.01777C7.01565 3.01777 7.8574 3.36216 8.48278 3.97681C9.10816 4.59147 9.46713 5.42723 9.48229 6.30396C9.48229 5.86482 9.56875 5.42995 9.73681 5.02424C9.90486 4.61853 10.1512 4.24992 10.4617 3.9394C10.7722 3.62888 11.1408 3.38254 11.5466 3.21449C11.9523 3.04643 12.3871 2.95997 12.8263 2.95997L12.8223 2.96095ZM12.8263 0.730965C11.62 0.72886 10.4459 1.12032 9.48229 1.84596C8.37833 1.02657 7.01043 0.644147 5.64159 0.772225C4.27276 0.900303 2.99955 1.52985 2.06676 2.5398C1.13397 3.54976 0.607416 4.86886 0.588307 6.24354C0.569199 7.61822 1.05889 8.95145 1.96325 9.98695C2.58925 10.7049 6.71225 14.565 7.96325 15.731C8.37617 16.1171 8.92042 16.3319 9.48577 16.3319C10.0511 16.3319 10.5953 16.1171 11.0082 15.731C12.2522 14.566 16.3582 10.716 16.9922 9.99897C17.7036 9.19543 18.1678 8.20361 18.3291 7.14265C18.4904 6.08169 18.342 4.99671 17.9016 4.01807C17.4612 3.03944 16.7476 2.20873 15.8466 1.6258C14.9456 1.04287 13.8954 0.732491 12.8223 0.731942L12.8263 0.730965Z" fill="#33A0FF"/>
</svg>
