<svg width="70" height="79" viewBox="0 0 70 79" fill="none" xmlns="http://www.w3.org/2000/svg">
<path d="M56.0753 16.709L52.3037 21.553C57.6498 25.6969 61.334 31.6192 62.6884 38.2463C64.0427 44.8733 62.9776 51.7663 59.686 57.6755C56.3944 63.5846 51.0944 68.1186 44.7468 70.4555C38.3993 72.7923 31.4245 72.7772 25.0871 70.413C18.7497 68.0488 13.4693 63.4919 10.2032 57.5687C6.93717 51.6454 5.90176 44.7479 7.2847 38.1267C8.66765 31.5056 12.3774 25.5992 17.7413 21.4784C23.1052 17.3577 29.7682 15.2954 36.5221 15.6655L31.2154 21.2324L35.1517 24.9889L43.5285 16.1885L47.2812 12.2472L43.3512 8.50577L34.5571 0.127777L30.8018 4.0691L36.5296 9.52536C27.7441 9.12529 19.1391 12.1054 12.4829 17.8534C5.82661 23.6013 1.62475 31.6805 0.740766 40.4305C-0.14322 49.1805 2.35782 57.9368 7.72992 64.9C13.102 71.8631 20.9371 76.5041 29.6251 77.8693C31.4178 78.1527 33.2299 78.2952 35.0449 78.2955C42.21 78.2777 49.1909 76.0238 55.0136 71.8483C60.8364 67.6728 65.2106 61.7839 67.5261 55.0032C69.8415 48.2225 69.9828 40.8881 67.93 34.0233C65.8773 27.1585 61.733 21.1056 56.0753 16.709Z" fill="#FF6875"/>
<path d="M38.3417 61.4326V57.8999C42.5307 57.4322 46.6053 54.7871 46.6053 49.7633C46.6053 42.938 40.259 42.156 35.6237 41.5852C32.6605 41.2307 30.3912 40.8196 30.3912 39.0243C30.3912 36.5275 33.9114 36.2584 35.42 36.2584C37.6654 36.2584 40.0616 37.3145 40.8763 38.661L41.1126 39.0532L45.7643 36.8984L45.5342 36.4294C44.8438 35.0644 43.8236 33.8934 42.5661 33.0224C41.3086 32.1515 39.8535 31.6083 38.3329 31.4421V28.3305H32.8893V31.427C27.8139 32.1813 24.7992 34.9924 24.7992 39.023C24.7992 45.5944 30.7659 46.2607 35.1195 46.7498C38.9993 47.2074 40.8046 48.1654 40.8046 49.7671C40.8046 52.8183 36.5791 53.0559 35.2842 53.0559C32.4015 53.0559 29.6268 51.6177 28.8172 49.7067L28.6173 49.2353L23.5659 51.3763L23.767 51.8477C25.2643 55.3541 28.4966 57.5504 32.8956 58.0696V61.4326H38.3417Z" fill="#FF6875"/>
</svg>
