<svg width="22" height="22" viewBox="0 0 22 22" fill="none" xmlns="http://www.w3.org/2000/svg">
<path fill-rule="evenodd" clip-rule="evenodd" d="M20.7069 19.4574L14.3989 13.1203C15.5307 11.5142 16.0178 9.54155 15.7638 7.59322C15.5098 5.64489 14.5332 3.86306 13.0276 2.60073C11.5219 1.33839 9.59701 0.687665 7.63425 0.777487C5.67149 0.867309 3.8141 1.69108 2.43003 3.08565C1.04596 4.48023 0.236204 6.34383 0.16123 8.30721C0.086256 10.2706 0.751527 12.1905 2.02521 13.6866C3.2989 15.1827 5.08808 16.1457 7.03827 16.385C8.98847 16.6242 10.9574 16.1222 12.5549 14.9784L18.8629 21.3164C18.9843 21.4403 19.1291 21.5389 19.2889 21.6065C19.4487 21.674 19.6203 21.709 19.7938 21.7096C19.9673 21.7102 20.1392 21.6763 20.2994 21.6099C20.4597 21.5435 20.6052 21.4459 20.7274 21.3227C20.8496 21.1996 20.9461 21.0534 21.0113 20.8926C21.0765 20.7318 21.1092 20.5597 21.1072 20.3863C21.1053 20.2128 21.0689 20.0414 21.0002 19.8821C20.9315 19.7228 20.8318 19.5788 20.7069 19.4583V19.4574ZM8.01792 13.8153C6.97697 13.8211 5.95774 13.5176 5.08942 12.9435C4.22111 12.3694 3.54279 11.5504 3.14045 10.5903C2.73811 9.63022 2.62986 8.57228 2.82941 7.55062C3.02897 6.52896 3.52735 5.58957 4.26139 4.85146C4.99543 4.11335 5.93207 3.60977 6.95261 3.40456C7.97315 3.19936 9.03165 3.30179 9.99393 3.69881C10.9562 4.09584 11.7789 4.7696 12.3579 5.63473C12.9368 6.49985 13.2459 7.51734 13.2459 8.55831C13.2459 9.94754 12.6961 11.2804 11.7164 12.2654C10.7368 13.2505 9.40713 13.8077 8.01792 13.8153Z" fill="#22262A"/>
</svg>
