<svg width="101" height="67" viewBox="0 0 101 67" fill="none" xmlns="http://www.w3.org/2000/svg">
<path d="M100.816 34.1226C100.816 34.1037 100.816 34.0849 100.816 34.066C100.808 33.4582 100.56 32.8783 100.126 32.4523C99.6926 32.0262 99.1085 31.7884 98.5006 31.7905H97.8921L88.4807 13.6113C88.2849 13.2341 87.9888 12.9183 87.625 12.6985C87.2613 12.4787 86.8439 12.3634 86.4189 12.3655H70.3607L70.9729 7.50889C71.0732 6.58026 70.9752 5.64092 70.6854 4.75299C70.3956 3.86506 69.9206 3.04877 69.2919 2.35808C68.6631 1.66739 67.8949 1.11804 67.038 0.746371C66.1811 0.374699 65.255 0.189171 64.3211 0.202043H14.4806C13.8717 0.205298 13.2856 0.434005 12.8354 0.844024C12.3852 1.25404 12.1029 1.8163 12.0429 2.42226L11.54 6.42267H39.9402C40.3752 6.42042 40.8063 6.50592 41.2075 6.67405C41.6088 6.84218 41.972 7.08949 42.2755 7.4012C42.579 7.7129 42.8165 8.08261 42.9739 8.4882C43.1312 8.8938 43.2052 9.32697 43.1913 9.7618C43.1637 10.6536 42.7912 11.4999 42.1522 12.1227C41.5133 12.7455 40.6577 13.0961 39.7654 13.1009H30.2937V13.1148H2.48439C1.85409 13.118 1.24957 13.3654 0.797818 13.8049C0.346068 14.2445 0.0822429 14.842 0.0617613 15.472C0.0516065 15.7797 0.10366 16.0863 0.214805 16.3735C0.32595 16.6606 0.493899 16.9223 0.708595 17.143C0.923291 17.3637 1.18032 17.5388 1.46428 17.6578C1.74824 17.7768 2.0533 17.8372 2.36118 17.8355H39.1846C40.0217 17.9628 40.7831 18.3924 41.3248 19.0432C41.8665 19.694 42.1508 20.5207 42.1239 21.367C42.0939 22.3179 41.698 23.2205 41.0187 23.8866C40.3395 24.5527 39.4294 24.931 38.4781 24.9425H13.0964C12.4584 24.9458 11.8466 25.1967 11.39 25.6423C10.9333 26.0879 10.6675 26.6934 10.6487 27.3312C10.6382 27.6421 10.6905 27.9519 10.8027 28.2421C10.9148 28.5322 11.0844 28.7968 11.3012 29.0198C11.518 29.2429 11.7777 29.4199 12.0645 29.5401C12.3514 29.6604 12.6596 29.7216 12.9707 29.7199H38.0594C38.9046 29.8363 39.6769 30.2609 40.2282 30.912C40.7795 31.563 41.0709 32.3948 41.0465 33.2476C41.0166 34.203 40.6173 35.1096 39.9327 35.7766C39.248 36.4437 38.3314 36.8192 37.3755 36.8243H8.5969H6.17805C5.54002 36.8276 4.92821 37.0785 4.47158 37.5241C4.01494 37.9697 3.74917 38.5752 3.73027 39.213C3.71978 39.5239 3.77216 39.8337 3.88429 40.1239C3.99642 40.414 4.16598 40.6786 4.38281 40.9016C4.59964 41.1247 4.85928 41.3017 5.14616 41.422C5.43304 41.5423 5.74125 41.6034 6.05233 41.6017H8.13928L7.32336 50.1431C7.22328 51.0716 7.32142 52.0108 7.61131 52.8986C7.90119 53.7864 8.37621 54.6025 9.00496 55.2931C9.63372 55.9836 10.4019 56.5329 11.2587 56.9044C12.1155 57.276 13.0414 57.4616 13.9752 57.4487H15.7768C16.1995 59.8689 17.4651 62.0613 19.3495 63.6377C21.2338 65.2142 23.6152 66.0729 26.072 66.0618C28.5709 66.0444 30.9909 65.1847 32.9408 63.6217C34.8906 62.0588 36.2564 59.8839 36.8173 57.4487H59.2847C61.0782 57.4327 62.8084 56.784 64.1702 55.617C65.4229 56.8103 67.0919 57.4675 68.8219 57.4487H69.1915C69.6142 59.8689 70.8799 62.0613 72.7642 63.6377C74.6485 65.2142 77.0299 66.0729 79.4867 66.0618C81.9856 66.0444 84.4056 65.1847 86.3555 63.6217C88.3053 62.0588 89.6711 59.8839 90.232 57.4487H91.7117C93.619 57.412 95.4474 56.6804 96.8536 55.3913C98.2598 54.1023 99.1472 52.3443 99.3492 50.4473L100.803 34.3552C100.803 34.3338 100.803 34.3124 100.803 34.2898C100.803 34.2672 100.809 34.2244 100.81 34.1905C100.811 34.1565 100.816 34.1414 100.816 34.1226ZM26.1965 61.2882C25.4198 61.2916 24.6505 61.1386 23.9343 60.8382C23.2181 60.5378 22.5698 60.0963 22.028 59.5399C21.4861 58.9835 21.0619 58.3237 20.7806 57.5998C20.4993 56.8759 20.3667 56.1028 20.3907 55.3265C20.442 53.7348 21.1078 52.2247 22.2484 51.1132C23.389 50.0017 24.9157 49.3751 26.5082 49.3649C27.2849 49.3615 28.0542 49.5145 28.7704 49.8149C29.4866 50.1153 30.1349 50.5568 30.6767 51.1132C31.2186 51.6696 31.6428 52.3294 31.9241 53.0533C32.2054 53.7772 32.338 54.5503 32.314 55.3265C32.2627 56.9183 31.5969 58.4284 30.4563 59.5399C29.3157 60.6514 27.789 61.278 26.1965 61.2882ZM79.6137 61.2882C78.8371 61.2916 78.0677 61.1386 77.3516 60.8382C76.6354 60.5378 75.987 60.0963 75.4452 59.5399C74.9034 58.9835 74.4792 58.3237 74.1979 57.5998C73.9166 56.8759 73.784 56.1028 73.8079 55.3265C73.8593 53.7348 74.525 52.2247 75.6656 51.1132C76.8062 50.0017 78.3329 49.3751 79.9255 49.3649C80.7021 49.3615 81.4714 49.5145 82.1876 49.8149C82.9038 50.1153 83.5521 50.5568 84.094 51.1132C84.6358 51.6696 85.06 52.3294 85.3413 53.0533C85.6226 53.7772 85.7552 54.5503 85.7312 55.3265C85.6799 56.9183 85.0141 58.4284 83.8736 59.5399C82.733 60.6514 81.2063 61.278 79.6137 61.2882ZM94.6033 50.1381C94.5234 50.8224 94.2 51.4553 93.6923 51.921C93.1845 52.3868 92.5262 52.6544 91.8375 52.6751H90.2383C89.7105 50.3722 88.4146 48.3175 86.5638 46.849C84.713 45.3805 82.4176 44.5856 80.055 44.5951C77.65 44.6118 75.3155 45.4085 73.4021 46.8655C71.4887 48.3226 70.0998 50.3612 69.4442 52.6751H68.9526C68.6679 52.6816 68.3851 52.6279 68.1225 52.5176C67.86 52.4074 67.6236 52.243 67.4289 52.0352C67.2382 51.8199 67.0949 51.567 67.0083 51.2928C66.9217 51.0186 66.8936 50.7293 66.926 50.4436L69.9332 17.1277H76.8391L75.7453 29.2597C75.645 30.1884 75.743 31.1277 76.0328 32.0156C76.3226 32.9036 76.7976 33.7199 77.4264 34.4105C78.0551 35.1012 78.8234 35.6506 79.6803 36.0222C80.5372 36.3939 81.4632 36.5795 82.3971 36.5666H95.8278L94.6033 50.1381Z" fill="#FF6875"/>
</svg>
