<svg width="69" height="89" viewBox="0 0 69 89" fill="none" xmlns="http://www.w3.org/2000/svg">
<path d="M0.515137 70.401V88.9661H68.1827V70.401C68.1801 68.3312 67.3567 66.347 65.8931 64.8834C64.4296 63.4198 62.4453 62.5964 60.3755 62.5938H8.32236C6.25257 62.5964 4.26832 63.4198 2.80476 64.8834C1.3412 66.347 0.517798 68.3312 0.515137 70.401H0.515137ZM5.71995 70.401C5.72095 69.7111 5.99545 69.0497 6.48328 68.5619C6.97111 68.0741 7.63246 67.7996 8.32236 67.7986H10.9248V83.765H5.71995V70.401ZM16.1308 67.7986H22.8606L34.3489 79.2869L45.8372 67.7986H52.5633V83.765H16.1308V67.7986ZM62.9779 70.401V83.7613H57.7731V67.7948H60.3755C61.0661 67.7958 61.728 68.0709 62.2159 68.5595C62.7039 69.0481 62.9779 69.7104 62.9779 70.401ZM38.4763 67.7986L34.3489 71.926L30.2215 67.7986H38.4763Z" fill="#FF6875"/>
<path d="M53.8205 52.1791H57.7769V46.9743H60.3793C62.4491 46.9716 64.4333 46.1482 65.8969 44.6847C67.3605 43.2211 68.1839 41.2368 68.1865 39.167V33.9622C68.1862 24.9885 64.621 16.3823 58.2754 10.0372C51.9297 3.69198 43.3234 0.127474 34.3496 0.127808C25.3758 0.128141 16.7697 3.69328 10.4245 10.0389C4.0793 16.3846 0.514803 24.991 0.515137 33.9648L0.515137 39.1696C0.517798 41.2394 1.3412 43.2236 2.80476 44.6872C4.26832 46.1507 6.25257 46.9741 8.32236 46.9768H12.2649C13.7124 51.076 16.2723 54.6913 19.6582 57.4179C23.0441 60.1445 27.1221 61.8746 31.4357 62.4146C35.7492 62.9547 40.128 62.2832 44.0815 60.4754C48.035 58.6676 51.4072 55.795 53.8205 52.1791ZM60.3793 41.7682H57.626C57.7229 40.9041 57.7716 40.0353 57.7719 39.1658V33.961C57.7716 33.0915 57.7229 32.2227 57.626 31.3586H60.3743C61.0642 31.3596 61.7255 31.6341 62.2133 32.1219C62.7012 32.6097 62.9757 33.2711 62.9767 33.961V39.1658C62.977 39.8566 62.7031 40.5192 62.2151 41.0081C61.7271 41.497 61.065 41.7722 60.3743 41.7732L60.3793 41.7682ZM34.3489 5.33576C40.6067 5.34381 46.69 7.39837 51.6712 11.1861C56.6524 14.9738 60.258 20.2867 61.9382 26.3147C61.4239 26.2099 60.9004 26.1573 60.3755 26.1575H56.4317C54.8171 21.5908 51.8265 17.6369 47.8716 14.8404C43.9167 12.0438 39.1921 10.5422 34.3483 10.5422C29.5046 10.5422 24.7799 12.0438 20.825 14.8404C16.8701 17.6369 13.8795 21.5908 12.2649 26.1575H8.32236C7.7975 26.1573 7.27395 26.2099 6.75966 26.3147C8.43984 20.2867 12.0455 14.9738 17.0267 11.1861C22.0079 7.39837 28.0912 5.34381 34.3489 5.33576ZM49.2946 23.5602C47.6118 25.964 45.3754 27.9278 42.7742 29.2858C40.173 30.6437 37.2833 31.3559 34.3489 31.3623H16.3169C16.838 27.7438 18.436 24.3659 20.9031 21.668C23.3702 18.9701 26.5922 17.0771 30.1498 16.2354C33.7074 15.3937 37.4361 15.6422 40.8505 16.9486C44.265 18.255 47.2073 20.5587 49.2946 23.5602ZM8.32236 41.7732C7.63246 41.7722 6.97111 41.4977 6.48328 41.0099C5.99545 40.5221 5.72095 39.8607 5.71995 39.1708V33.966C5.72095 33.2761 5.99545 32.6148 6.48328 32.1269C6.97111 31.6391 7.63246 31.3646 8.32236 31.3636H11.0756C10.9787 32.2277 10.93 33.0965 10.9298 33.966V39.1708C10.93 40.0403 10.9787 40.9091 11.0756 41.7732H8.32236ZM16.1296 39.1708V36.5684H34.3489C37.6444 36.5623 40.9018 35.8634 43.9097 34.5171C46.9176 33.1709 49.6089 31.2072 51.809 28.7537C52.3147 30.4444 52.5709 32.2 52.5696 33.9648V39.1696C52.5724 41.8707 51.971 44.5382 50.8095 46.9768H42.1562L39.8655 44.6912C38.4012 46.1553 36.4153 46.9778 34.3445 46.9778C32.2738 46.9778 30.2879 46.1553 28.8235 44.6912L25.1437 48.371C27.3586 50.5858 30.298 51.9275 33.4224 52.1496C36.5467 52.3718 39.6464 51.4596 42.1524 49.5804V52.1791H47.0806C44.5193 54.6881 41.2743 56.3852 37.7524 57.0573C34.2305 57.7295 30.5886 57.3469 27.2832 55.9576C23.9779 54.5682 21.1564 52.2339 19.1724 49.2474C17.1884 46.2608 16.1303 42.755 16.1308 39.1696L16.1296 39.1708Z" fill="#FF6875"/>
</svg>
