<svg width="18" height="13" viewBox="0 0 18 13" fill="none" xmlns="http://www.w3.org/2000/svg">
<path d="M17.8617 1.53887C17.2118 1.7942 16.5245 1.96395 15.8208 2.04289C16.5627 1.64683 17.1174 1.01955 17.3798 0.279893C16.6861 0.650321 15.9272 0.911398 15.1358 1.05187C14.6502 0.583961 14.0194 0.258474 13.3255 0.11776C12.6315 -0.0229546 11.9067 0.0276176 11.2451 0.262897C10.5836 0.498176 10.016 0.907269 9.61622 1.43695C9.21645 1.96662 9.00302 2.59237 9.00368 3.23275C9.00109 3.4772 9.02882 3.72115 9.08636 3.96006C7.67689 3.89776 6.2979 3.56836 5.03953 2.99338C3.78116 2.4184 2.67174 1.61079 1.78379 0.623349C1.32778 1.32503 1.18654 2.15699 1.38893 2.94928C1.59132 3.74156 2.12206 4.43439 2.87274 4.88622C2.31207 4.87282 1.76319 4.73825 1.27239 4.49385V4.52895C1.27315 5.26506 1.55534 5.97849 2.07155 6.54934C2.58775 7.1202 3.30649 7.51367 4.10696 7.66363C3.80374 7.73604 3.49116 7.77179 3.17746 7.76996C2.95233 7.77365 2.72741 7.75547 2.50661 7.71573C2.73527 8.34837 3.17598 8.9017 3.76816 9.29966C4.36034 9.69761 5.07491 9.92064 5.81361 9.93808C4.56096 10.8193 3.01679 11.2976 1.42711 11.297C1.1437 11.2988 0.860447 11.2842 0.579102 11.2534C2.19855 12.1929 4.08553 12.69 6.01203 12.6847C7.33866 12.693 8.65391 12.4639 9.88139 12.0108C11.1089 11.5576 12.2241 10.8894 13.1623 10.0449C14.1005 9.20044 14.843 8.19655 15.3466 7.09155C15.8502 5.98656 16.105 4.80248 16.096 3.6081C16.096 3.46668 16.096 3.33058 16.083 3.19553C16.783 2.74537 17.3857 2.18394 17.8617 1.53887Z" fill="white"/>
</svg>
